<svg width="171" height="34" viewBox="0 0 171 34" fill="none" xmlns="http://www.w3.org/2000/svg">
<path d="M19.49 14.08C19.0367 13.3333 18.41 12.76 17.61 12.36C16.8367 11.96 15.9167 11.76 14.85 11.76C12.8767 11.76 11.3167 12.4 10.17 13.68C9.05 14.96 8.49 16.68 8.49 18.84C8.49 21.2667 9.09 23.12 10.29 24.4C11.5167 25.6533 13.29 26.28 15.61 26.28C18.3567 26.28 20.3167 25.04 21.49 22.56H13.61V16.92H28.25V24.52C27.6367 26.0133 26.73 27.4133 25.53 28.72C24.3567 30.0267 22.8633 31.1067 21.05 31.96C19.2367 32.7867 17.17 33.2 14.85 33.2C12.0233 33.2 9.51667 32.6 7.33 31.4C5.17 30.1733 3.49 28.48 2.29 26.32C1.11667 24.1333 0.53 21.64 0.53 18.84C0.53 16.0667 1.11667 13.6 2.29 11.44C3.49 9.25333 5.17 7.56 7.33 6.36C9.49 5.13333 11.9833 4.52 14.81 4.52C18.3567 4.52 21.29 5.37333 23.61 7.08C25.93 8.78667 27.37 11.12 27.93 14.08H19.49ZM42.2034 33.28C39.9634 33.28 37.9501 32.8133 36.1634 31.88C34.4034 30.9467 33.0168 29.6133 32.0034 27.88C30.9901 26.1467 30.4834 24.1067 30.4834 21.76C30.4834 19.44 30.9901 17.4133 32.0034 15.68C33.0434 13.9467 34.4434 12.6133 36.2034 11.68C37.9901 10.7467 40.0034 10.28 42.2434 10.28C44.4834 10.28 46.4834 10.7467 48.2434 11.68C50.0301 12.6133 51.4301 13.9467 52.4434 15.68C53.4834 17.4133 54.0034 19.44 54.0034 21.76C54.0034 24.08 53.4834 26.12 52.4434 27.88C51.4301 29.6133 50.0301 30.9467 48.2434 31.88C46.4568 32.8133 44.4434 33.28 42.2034 33.28ZM42.2034 26.48C43.2968 26.48 44.2034 26.08 44.9234 25.28C45.6701 24.4533 46.0434 23.28 46.0434 21.76C46.0434 20.24 45.6701 19.08 44.9234 18.28C44.2034 17.48 43.3101 17.08 42.2434 17.08C41.1768 17.08 40.2834 17.48 39.5634 18.28C38.8434 19.08 38.4834 20.24 38.4834 21.76C38.4834 23.3067 38.8301 24.48 39.5234 25.28C40.2168 26.08 41.1101 26.48 42.2034 26.48ZM67.6331 33.28C65.3931 33.28 63.3798 32.8133 61.5931 31.88C59.8331 30.9467 58.4465 29.6133 57.4331 27.88C56.4198 26.1467 55.9131 24.1067 55.9131 21.76C55.9131 19.44 56.4198 17.4133 57.4331 15.68C58.4731 13.9467 59.8731 12.6133 61.6331 11.68C63.4198 10.7467 65.4331 10.28 67.6731 10.28C69.9131 10.28 71.9131 10.7467 73.6731 11.68C75.4598 12.6133 76.8598 13.9467 77.8731 15.68C78.9131 17.4133 79.4331 19.44 79.4331 21.76C79.4331 24.08 78.9131 26.12 77.8731 27.88C76.8598 29.6133 75.4598 30.9467 73.6731 31.88C71.8865 32.8133 69.8731 33.28 67.6331 33.28ZM67.6331 26.48C68.7265 26.48 69.6331 26.08 70.3531 25.28C71.0998 24.4533 71.4731 23.28 71.4731 21.76C71.4731 20.24 71.0998 19.08 70.3531 18.28C69.6331 17.48 68.7398 17.08 67.6731 17.08C66.6065 17.08 65.7131 17.48 64.9931 18.28C64.2731 19.08 63.9131 20.24 63.9131 21.76C63.9131 23.3067 64.2598 24.48 64.9531 25.28C65.6465 26.08 66.5398 26.48 67.6331 26.48ZM81.3428 21.76C81.3428 19.44 81.7561 17.4133 82.5828 15.68C83.4361 13.9467 84.5961 12.6133 86.0628 11.68C87.5295 10.7467 89.1561 10.28 90.9428 10.28C92.3828 10.28 93.6628 10.5867 94.7828 11.2C95.9295 11.7867 96.8228 12.6 97.4628 13.64V3.4H105.343V33H97.4628V29.88C96.8495 30.92 95.9828 31.7467 94.8628 32.36C93.7428 32.9733 92.4228 33.28 90.9028 33.28C89.1161 33.28 87.4895 32.8133 86.0228 31.88C84.5828 30.9467 83.4361 29.6133 82.5828 27.88C81.7561 26.12 81.3428 24.08 81.3428 21.76ZM97.5028 21.76C97.5028 20.32 97.1028 19.1867 96.3028 18.36C95.5295 17.5333 94.5695 17.12 93.4228 17.12C92.2495 17.12 91.2761 17.5333 90.5028 18.36C89.7295 19.16 89.3428 20.2933 89.3428 21.76C89.3428 23.2 89.7295 24.3467 90.5028 25.2C91.2761 26.0267 92.2495 26.44 93.4228 26.44C94.5695 26.44 95.5295 26.0267 96.3028 25.2C97.1028 24.3733 97.5028 23.2267 97.5028 21.76Z" fill="white"/>
<path d="M117.65 3.4V33H109.81V3.4H117.65ZM126.075 8.48C124.688 8.48 123.568 8.10667 122.715 7.36C121.888 6.58667 121.475 5.62667 121.475 4.48C121.475 3.30667 121.888 2.33333 122.715 1.56C123.568 0.786665 124.688 0.399998 126.075 0.399998C127.435 0.399998 128.528 0.786665 129.355 1.56C130.208 2.33333 130.635 3.30667 130.635 4.48C130.635 5.62667 130.208 6.58667 129.355 7.36C128.528 8.10667 127.435 8.48 126.075 8.48ZM129.955 10.56V33H122.115V10.56H129.955ZM146.54 17.08H143.02V33H135.14V17.08H132.7V10.56H135.14V10.36C135.14 7.48 135.98 5.28 137.66 3.76C139.366 2.21333 141.806 1.44 144.98 1.44C145.62 1.44 146.113 1.45333 146.46 1.48V8.16C146.246 8.13333 145.953 8.12 145.58 8.12C144.726 8.12 144.1 8.32 143.7 8.72C143.3 9.09333 143.073 9.70666 143.02 10.56H146.54V17.08ZM170.782 21.52C170.782 22.1333 170.742 22.7467 170.662 23.36H155.822C155.902 24.5867 156.235 25.5067 156.822 26.12C157.435 26.7067 158.208 27 159.142 27C160.448 27 161.382 26.4133 161.942 25.24H170.302C169.955 26.7867 169.275 28.1733 168.262 29.4C167.275 30.6 166.022 31.5467 164.502 32.24C162.982 32.9333 161.302 33.28 159.462 33.28C157.248 33.28 155.275 32.8133 153.542 31.88C151.835 30.9467 150.488 29.6133 149.502 27.88C148.542 26.1467 148.062 24.1067 148.062 21.76C148.062 19.4133 148.542 17.3867 149.502 15.68C150.462 13.9467 151.795 12.6133 153.502 11.68C155.235 10.7467 157.222 10.28 159.462 10.28C161.675 10.28 163.635 10.7333 165.342 11.64C167.048 12.5467 168.382 13.8533 169.342 15.56C170.302 17.24 170.782 19.2267 170.782 21.52ZM162.782 19.56C162.782 18.6 162.462 17.8533 161.822 17.32C161.182 16.76 160.382 16.48 159.422 16.48C158.462 16.48 157.675 16.7467 157.062 17.28C156.448 17.7867 156.048 18.5467 155.862 19.56H162.782Z" fill="#FFC1D8"/>
</svg>
